<?xml version="1.0" encoding="utf-8"?>
<!-- Generator: Adobe Illustrator 27.5.0, SVG Export Plug-In . SVG Version: 6.00 Build 0)  -->
<svg version="1.1" id="Layer_2" xmlns="http://www.w3.org/2000/svg" xmlns:xlink="http://www.w3.org/1999/xlink" x="0px" y="0px"
	 viewBox="0 0 400 400" style="enable-background:new 0 0 400 400;" xml:space="preserve">
<linearGradient id="SVGID_1_" gradientUnits="userSpaceOnUse" x1="0" y1="200" x2="400" y2="200">
	<stop  offset="0.002" style="stop-color:#6B6A6F"/>
	<stop  offset="0.162" style="stop-color:#E4E4E4"/>
	<stop  offset="0.3416" style="stop-color:#B3B4B8"/>
	<stop  offset="0.4778" style="stop-color:#B7B8BB"/>
	<stop  offset="0.6052" style="stop-color:#C2C3C5"/>
	<stop  offset="0.7287" style="stop-color:#D5D5D6"/>
	<stop  offset="0.8026" style="stop-color:#E4E4E4"/>
	<stop  offset="1" style="stop-color:#B3B4B8"/>
</linearGradient>
<rect style="fill-rule:evenodd;clip-rule:evenodd;fill:url(#SVGID_1_);" width="400" height="400"/>
<g>
	<g>
		
			<radialGradient id="SVGID_00000148620094119704472980000002378548648790414517_" cx="239.4792" cy="90.9152" r="27.0013" gradientTransform="matrix(2.9815 0 0 0.4489 -427.8897 33.6896)" gradientUnits="userSpaceOnUse">
			<stop  offset="0" style="stop-color:#010101"/>
			<stop  offset="0.4362" style="stop-color:#979797"/>
			<stop  offset="0.6747" style="stop-color:#E4E4E4"/>
			<stop  offset="0.8434" style="stop-color:#FFFFFF"/>
		</radialGradient>
		
			<ellipse style="fill:url(#SVGID_00000148620094119704472980000002378548648790414517_);" cx="286.118" cy="74.5" rx="80.5" ry="12"/>
		<path style="fill:#00364C;" d="M373.868,71.817c0,2.448-1.985,4.433-4.433,4.433H202.301c-2.448,0-4.433-1.985-4.433-4.433V44.183
			c0-2.448,1.985-4.433,4.433-4.433h167.134c2.448,0,4.433,1.985,4.433,4.433V71.817z"/>
		<g style="opacity:0.7;">
			
				<linearGradient id="SVGID_00000102514346892905408060000009184041822433564292_" gradientUnits="userSpaceOnUse" x1="238.5876" y1="104.7802" x2="332.1479" y2="11.2198">
				<stop  offset="0" style="stop-color:#FFFFFF"/>
				<stop  offset="0.1576" style="stop-color:#8A8A8A"/>
				<stop  offset="0.2971" style="stop-color:#282828"/>
				<stop  offset="0.3591" style="stop-color:#010101"/>
				<stop  offset="0.4221" style="stop-color:#040404"/>
				<stop  offset="0.4709" style="stop-color:#0E0E0E"/>
				<stop  offset="0.515" style="stop-color:#1E1E1E"/>
				<stop  offset="0.5562" style="stop-color:#363636"/>
				<stop  offset="0.5956" style="stop-color:#545454"/>
				<stop  offset="0.6334" style="stop-color:#797979"/>
				<stop  offset="0.6702" style="stop-color:#A5A5A5"/>
				<stop  offset="0.705" style="stop-color:#D6D6D6"/>
				<stop  offset="0.7303" style="stop-color:#FFFFFF"/>
				<stop  offset="0.7559" style="stop-color:#F0F0F0"/>
				<stop  offset="0.8052" style="stop-color:#C8C8C8"/>
				<stop  offset="0.8733" style="stop-color:#888888"/>
				<stop  offset="0.9565" style="stop-color:#313131"/>
				<stop  offset="1" style="stop-color:#010101"/>
			</linearGradient>
			<path style="fill:url(#SVGID_00000102514346892905408060000009184041822433564292_);" d="M363.334,71.569H207.401
				c-2.7,0-4.897-2.197-4.897-4.897V49.328c0-2.7,2.197-4.897,4.897-4.897h155.933c2.7,0,4.897,2.197,4.897,4.897v17.344
				C368.231,69.372,366.034,71.569,363.334,71.569z M207.401,46.431c-1.597,0-2.897,1.3-2.897,2.897v17.344
				c0,1.597,1.3,2.897,2.897,2.897h155.933c1.597,0,2.897-1.3,2.897-2.897V49.328c0-1.597-1.3-2.897-2.897-2.897H207.401z"/>
		</g>
		
			<linearGradient id="SVGID_00000167392285549318706170000017800006642047452558_" gradientUnits="userSpaceOnUse" x1="352.483" y1="60.4515" x2="358.8861" y2="54.0485">
			<stop  offset="0.002" style="stop-color:#6B6A6F"/>
			<stop  offset="0.162" style="stop-color:#E4E4E4"/>
			<stop  offset="0.3416" style="stop-color:#B3B4B8"/>
			<stop  offset="0.4778" style="stop-color:#B7B8BB"/>
			<stop  offset="0.6052" style="stop-color:#C2C3C5"/>
			<stop  offset="0.7287" style="stop-color:#D5D5D6"/>
			<stop  offset="0.8026" style="stop-color:#E4E4E4"/>
			<stop  offset="1" style="stop-color:#B3B4B8"/>
		</linearGradient>
		<path style="fill-rule:evenodd;clip-rule:evenodd;fill:url(#SVGID_00000167392285549318706170000017800006642047452558_);" d="
			M360.185,57.317c0,2.448-1.985,4.433-4.433,4.433h-0.134c-2.448,0-4.433-1.985-4.433-4.433v-0.134
			c0-2.448,1.985-4.433,4.433-4.433h0.134c2.448,0,4.433,1.985,4.433,4.433V57.317z"/>
	</g>
	<g>
		
			<radialGradient id="SVGID_00000088134740176088137370000005132417410421227959_" cx="239.4792" cy="184.3875" r="27.0013" gradientTransform="matrix(2.9815 0 0 0.4489 -427.8897 33.2705)" gradientUnits="userSpaceOnUse">
			<stop  offset="0" style="stop-color:#010101"/>
			<stop  offset="0.4362" style="stop-color:#979797"/>
			<stop  offset="0.6747" style="stop-color:#E4E4E4"/>
			<stop  offset="0.8434" style="stop-color:#FFFFFF"/>
		</radialGradient>
		
			<ellipse style="fill:url(#SVGID_00000088134740176088137370000005132417410421227959_);" cx="286.118" cy="116.039" rx="80.5" ry="12"/>
		<path style="fill:#00364C;" d="M373.868,113.817c0,2.448-1.985,4.433-4.433,4.433H202.301c-2.448,0-4.433-1.985-4.433-4.433
			V86.183c0-2.448,1.985-4.433,4.433-4.433h167.134c2.448,0,4.433,1.985,4.433,4.433V113.817z"/>
		<g style="opacity:0.7;">
			
				<linearGradient id="SVGID_00000047777361153089231370000015103027830607923625_" gradientUnits="userSpaceOnUse" x1="238.5876" y1="146.7802" x2="332.1479" y2="53.2198">
				<stop  offset="0" style="stop-color:#FFFFFF"/>
				<stop  offset="0.1576" style="stop-color:#8A8A8A"/>
				<stop  offset="0.2971" style="stop-color:#282828"/>
				<stop  offset="0.3591" style="stop-color:#010101"/>
				<stop  offset="0.4221" style="stop-color:#040404"/>
				<stop  offset="0.4709" style="stop-color:#0E0E0E"/>
				<stop  offset="0.515" style="stop-color:#1E1E1E"/>
				<stop  offset="0.5562" style="stop-color:#363636"/>
				<stop  offset="0.5956" style="stop-color:#545454"/>
				<stop  offset="0.6334" style="stop-color:#797979"/>
				<stop  offset="0.6702" style="stop-color:#A5A5A5"/>
				<stop  offset="0.705" style="stop-color:#D6D6D6"/>
				<stop  offset="0.7303" style="stop-color:#FFFFFF"/>
				<stop  offset="0.7559" style="stop-color:#F0F0F0"/>
				<stop  offset="0.8052" style="stop-color:#C8C8C8"/>
				<stop  offset="0.8733" style="stop-color:#888888"/>
				<stop  offset="0.9565" style="stop-color:#313131"/>
				<stop  offset="1" style="stop-color:#010101"/>
			</linearGradient>
			<path style="fill:url(#SVGID_00000047777361153089231370000015103027830607923625_);" d="M363.334,113.569H207.401
				c-2.7,0-4.897-2.197-4.897-4.897V91.328c0-2.7,2.197-4.897,4.897-4.897h155.933c2.7,0,4.897,2.197,4.897,4.897v17.344
				C368.231,111.372,366.034,113.569,363.334,113.569z M207.401,88.431c-1.597,0-2.897,1.3-2.897,2.897v17.344
				c0,1.597,1.3,2.897,2.897,2.897h155.933c1.597,0,2.897-1.3,2.897-2.897V91.328c0-1.597-1.3-2.897-2.897-2.897H207.401z"/>
		</g>
		
			<linearGradient id="SVGID_00000068642593982056570540000018074075179659420827_" gradientUnits="userSpaceOnUse" x1="352.483" y1="102.4515" x2="358.8861" y2="96.0485">
			<stop  offset="0.002" style="stop-color:#6B6A6F"/>
			<stop  offset="0.162" style="stop-color:#E4E4E4"/>
			<stop  offset="0.3416" style="stop-color:#B3B4B8"/>
			<stop  offset="0.4778" style="stop-color:#B7B8BB"/>
			<stop  offset="0.6052" style="stop-color:#C2C3C5"/>
			<stop  offset="0.7287" style="stop-color:#D5D5D6"/>
			<stop  offset="0.8026" style="stop-color:#E4E4E4"/>
			<stop  offset="1" style="stop-color:#B3B4B8"/>
		</linearGradient>
		<path style="fill-rule:evenodd;clip-rule:evenodd;fill:url(#SVGID_00000068642593982056570540000018074075179659420827_);" d="
			M360.185,99.317c0,2.448-1.985,4.433-4.433,4.433h-0.134c-2.448,0-4.433-1.985-4.433-4.433v-0.134
			c0-2.448,1.985-4.433,4.433-4.433h0.134c2.448,0,4.433,1.985,4.433,4.433V99.317z"/>
	</g>
	<g>
		
			<radialGradient id="SVGID_00000181069179051715585430000000782938654108600723_" cx="239.4792" cy="278.6794" r="27.0013" gradientTransform="matrix(2.9815 0 0 0.4489 -427.8897 32.8477)" gradientUnits="userSpaceOnUse">
			<stop  offset="0" style="stop-color:#010101"/>
			<stop  offset="0.4362" style="stop-color:#979797"/>
			<stop  offset="0.6747" style="stop-color:#E4E4E4"/>
			<stop  offset="0.8434" style="stop-color:#FFFFFF"/>
		</radialGradient>
		
			<ellipse style="fill:url(#SVGID_00000181069179051715585430000000782938654108600723_);" cx="286.118" cy="157.942" rx="80.5" ry="12"/>
		<path style="fill:#00364C;" d="M373.868,156.317c0,2.448-1.985,4.433-4.433,4.433H202.301c-2.448,0-4.433-1.985-4.433-4.433
			v-27.634c0-2.448,1.985-4.433,4.433-4.433h167.134c2.448,0,4.433,1.985,4.433,4.433V156.317z"/>
		<g style="opacity:0.7;">
			
				<linearGradient id="SVGID_00000058575766586003752460000014456218116861637796_" gradientUnits="userSpaceOnUse" x1="238.5876" y1="189.2802" x2="332.1479" y2="95.7198">
				<stop  offset="0" style="stop-color:#FFFFFF"/>
				<stop  offset="0.1576" style="stop-color:#8A8A8A"/>
				<stop  offset="0.2971" style="stop-color:#282828"/>
				<stop  offset="0.3591" style="stop-color:#010101"/>
				<stop  offset="0.4221" style="stop-color:#040404"/>
				<stop  offset="0.4709" style="stop-color:#0E0E0E"/>
				<stop  offset="0.515" style="stop-color:#1E1E1E"/>
				<stop  offset="0.5562" style="stop-color:#363636"/>
				<stop  offset="0.5956" style="stop-color:#545454"/>
				<stop  offset="0.6334" style="stop-color:#797979"/>
				<stop  offset="0.6702" style="stop-color:#A5A5A5"/>
				<stop  offset="0.705" style="stop-color:#D6D6D6"/>
				<stop  offset="0.7303" style="stop-color:#FFFFFF"/>
				<stop  offset="0.7559" style="stop-color:#F0F0F0"/>
				<stop  offset="0.8052" style="stop-color:#C8C8C8"/>
				<stop  offset="0.8733" style="stop-color:#888888"/>
				<stop  offset="0.9565" style="stop-color:#313131"/>
				<stop  offset="1" style="stop-color:#010101"/>
			</linearGradient>
			<path style="fill:url(#SVGID_00000058575766586003752460000014456218116861637796_);" d="M363.334,156.069H207.401
				c-2.7,0-4.897-2.197-4.897-4.897v-17.344c0-2.7,2.197-4.897,4.897-4.897h155.933c2.7,0,4.897,2.197,4.897,4.897v17.344
				C368.231,153.872,366.034,156.069,363.334,156.069z M207.401,130.931c-1.597,0-2.897,1.3-2.897,2.897v17.344
				c0,1.597,1.3,2.897,2.897,2.897h155.933c1.597,0,2.897-1.3,2.897-2.897v-17.344c0-1.597-1.3-2.897-2.897-2.897H207.401z"/>
		</g>
		
			<linearGradient id="SVGID_00000044172718315204472170000016386160480657716107_" gradientUnits="userSpaceOnUse" x1="352.483" y1="144.9515" x2="358.8861" y2="138.5485">
			<stop  offset="0.002" style="stop-color:#6B6A6F"/>
			<stop  offset="0.162" style="stop-color:#E4E4E4"/>
			<stop  offset="0.3416" style="stop-color:#B3B4B8"/>
			<stop  offset="0.4778" style="stop-color:#B7B8BB"/>
			<stop  offset="0.6052" style="stop-color:#C2C3C5"/>
			<stop  offset="0.7287" style="stop-color:#D5D5D6"/>
			<stop  offset="0.8026" style="stop-color:#E4E4E4"/>
			<stop  offset="1" style="stop-color:#B3B4B8"/>
		</linearGradient>
		<path style="fill-rule:evenodd;clip-rule:evenodd;fill:url(#SVGID_00000044172718315204472170000016386160480657716107_);" d="
			M360.185,141.817c0,2.448-1.985,4.433-4.433,4.433h-0.134c-2.448,0-4.433-1.985-4.433-4.433v-0.134
			c0-2.448,1.985-4.433,4.433-4.433h0.134c2.448,0,4.433,1.985,4.433,4.433V141.817z"/>
	</g>
	<g>
		
			<radialGradient id="SVGID_00000054258304692873397880000000344517661466930840_" cx="199.9284" cy="337.8714" r="48.1816" gradientTransform="matrix(1.9612 0 0 1.8867 -105.2907 -317.7279)" gradientUnits="userSpaceOnUse">
			<stop  offset="0" style="stop-color:#010101"/>
			<stop  offset="0.4362" style="stop-color:#979797"/>
			<stop  offset="0.6747" style="stop-color:#E4E4E4"/>
			<stop  offset="0.8434" style="stop-color:#FFFFFF"/>
		</radialGradient>
		
			<ellipse style="fill:url(#SVGID_00000054258304692873397880000000344517661466930840_);" cx="286.809" cy="319.75" rx="94.492" ry="90"/>
		<path style="fill:#00364C;" d="M373.868,338.993c0,2.627-2.13,4.757-4.757,4.757H202.625c-2.627,0-4.757-2.13-4.757-4.757V172.507
			c0-2.627,2.13-4.757,4.757-4.757H369.11c2.627,0,4.757,2.13,4.757,4.757V338.993z"/>
		<g style="opacity:0.7;">
			
				<linearGradient id="SVGID_00000043456775561187786410000002339536336227011768_" gradientUnits="userSpaceOnUse" x1="205.7731" y1="335.8446" x2="365.9623" y2="175.6554">
				<stop  offset="0" style="stop-color:#FFFFFF"/>
				<stop  offset="0.1576" style="stop-color:#8A8A8A"/>
				<stop  offset="0.2971" style="stop-color:#282828"/>
				<stop  offset="0.3591" style="stop-color:#010101"/>
				<stop  offset="0.4221" style="stop-color:#040404"/>
				<stop  offset="0.4709" style="stop-color:#0E0E0E"/>
				<stop  offset="0.515" style="stop-color:#1E1E1E"/>
				<stop  offset="0.5562" style="stop-color:#363636"/>
				<stop  offset="0.5956" style="stop-color:#545454"/>
				<stop  offset="0.6334" style="stop-color:#797979"/>
				<stop  offset="0.6702" style="stop-color:#A5A5A5"/>
				<stop  offset="0.705" style="stop-color:#D6D6D6"/>
				<stop  offset="0.7303" style="stop-color:#FFFFFF"/>
				<stop  offset="0.7559" style="stop-color:#F0F0F0"/>
				<stop  offset="0.8052" style="stop-color:#C8C8C8"/>
				<stop  offset="0.8733" style="stop-color:#888888"/>
				<stop  offset="0.9565" style="stop-color:#313131"/>
				<stop  offset="1" style="stop-color:#010101"/>
			</linearGradient>
			<path style="fill:url(#SVGID_00000043456775561187786410000002339536336227011768_);" d="M362.173,337.417H209.562
				c-2.956,0-5.361-2.405-5.361-5.361V179.444c0-2.956,2.405-5.361,5.361-5.361h152.611c2.956,0,5.361,2.405,5.361,5.361v152.611
				C367.534,335.012,365.129,337.417,362.173,337.417z M209.562,176.083c-1.853,0-3.361,1.508-3.361,3.361v152.611
				c0,1.853,1.508,3.361,3.361,3.361h152.611c1.853,0,3.361-1.508,3.361-3.361V179.444c0-1.853-1.508-3.361-3.361-3.361H209.562z"/>
		</g>
		
			<linearGradient id="SVGID_00000049180264081897354790000012314444330601596320_" gradientUnits="userSpaceOnUse" x1="352.483" y1="189.4515" x2="358.8861" y2="183.0485">
			<stop  offset="0.002" style="stop-color:#6B6A6F"/>
			<stop  offset="0.162" style="stop-color:#E4E4E4"/>
			<stop  offset="0.3416" style="stop-color:#B3B4B8"/>
			<stop  offset="0.4778" style="stop-color:#B7B8BB"/>
			<stop  offset="0.6052" style="stop-color:#C2C3C5"/>
			<stop  offset="0.7287" style="stop-color:#D5D5D6"/>
			<stop  offset="0.8026" style="stop-color:#E4E4E4"/>
			<stop  offset="1" style="stop-color:#B3B4B8"/>
		</linearGradient>
		<path style="fill-rule:evenodd;clip-rule:evenodd;fill:url(#SVGID_00000049180264081897354790000012314444330601596320_);" d="
			M360.185,186.317c0,2.448-1.985,4.433-4.433,4.433h-0.134c-2.448,0-4.433-1.985-4.433-4.433v-0.134
			c0-2.448,1.985-4.433,4.433-4.433h0.134c2.448,0,4.433,1.985,4.433,4.433V186.317z"/>
	</g>
	<g>
		
			<radialGradient id="SVGID_00000117666789284248294810000013366254578396352174_" cx="106.5763" cy="335.7299" r="52.9999" gradientTransform="matrix(1.9623 0 0 1.8867 -105.6347 -317.6875)" gradientUnits="userSpaceOnUse">
			<stop  offset="0" style="stop-color:#010101"/>
			<stop  offset="0.4362" style="stop-color:#979797"/>
			<stop  offset="0.6747" style="stop-color:#E4E4E4"/>
			<stop  offset="0.8434" style="stop-color:#FFFFFF"/>
		</radialGradient>
		
			<ellipse style="fill:url(#SVGID_00000117666789284248294810000013366254578396352174_);" cx="103.5" cy="315.75" rx="104" ry="99"/>
		<g>
			<path style="fill:#00364C;" d="M174.5,339.817c0,2.448-1.985,4.433-4.433,4.433H36.933c-2.448,0-4.433-1.985-4.433-4.433V44.183
				c0-2.448,1.985-4.433,4.433-4.433h133.134c2.448,0,4.433,1.985,4.433,4.433V339.817z"/>
			
				<linearGradient id="SVGID_00000008860543748085226720000000858639822773008795_" gradientUnits="userSpaceOnUse" x1="103.5003" y1="338.2021" x2="103.5003" y2="46.7979">
				<stop  offset="0" style="stop-color:#010101"/>
				<stop  offset="0.0992" style="stop-color:#101010"/>
				<stop  offset="0.2904" style="stop-color:#383838"/>
				<stop  offset="0.5543" style="stop-color:#777878"/>
				<stop  offset="0.8776" style="stop-color:#CECFCF"/>
				<stop  offset="1" style="stop-color:#F1F2F2"/>
			</linearGradient>
			<path style="opacity:0.1;fill:url(#SVGID_00000008860543748085226720000000858639822773008795_);" d="M169.618,334.074
				c0,2.28-1.848,4.128-4.128,4.128H41.511c-2.28,0-4.128-1.849-4.128-4.128V50.926c0-2.28,1.849-4.128,4.128-4.128H165.49
				c2.28,0,4.128,1.849,4.128,4.128V334.074z"/>
			<g style="opacity:0.7;">
				
					<linearGradient id="SVGID_00000021081175682026847180000002471741304008349119_" gradientUnits="userSpaceOnUse" x1="-1.9059" y1="297.9062" x2="208.9064" y2="87.0938">
					<stop  offset="0" style="stop-color:#FFFFFF"/>
					<stop  offset="0.1576" style="stop-color:#8A8A8A"/>
					<stop  offset="0.2971" style="stop-color:#282828"/>
					<stop  offset="0.3591" style="stop-color:#010101"/>
					<stop  offset="0.4221" style="stop-color:#040404"/>
					<stop  offset="0.4709" style="stop-color:#0E0E0E"/>
					<stop  offset="0.515" style="stop-color:#1E1E1E"/>
					<stop  offset="0.5562" style="stop-color:#363636"/>
					<stop  offset="0.5956" style="stop-color:#545454"/>
					<stop  offset="0.6334" style="stop-color:#797979"/>
					<stop  offset="0.6702" style="stop-color:#A5A5A5"/>
					<stop  offset="0.705" style="stop-color:#D6D6D6"/>
					<stop  offset="0.7303" style="stop-color:#FFFFFF"/>
					<stop  offset="0.7559" style="stop-color:#F0F0F0"/>
					<stop  offset="0.8052" style="stop-color:#C8C8C8"/>
					<stop  offset="0.8733" style="stop-color:#888888"/>
					<stop  offset="0.9565" style="stop-color:#313131"/>
					<stop  offset="1" style="stop-color:#010101"/>
				</linearGradient>
				<path style="fill:url(#SVGID_00000021081175682026847180000002471741304008349119_);" d="M165.49,339.202H41.511
					c-2.828,0-5.128-2.301-5.128-5.128V50.926c0-2.828,2.301-5.128,5.128-5.128H165.49c2.828,0,5.128,2.301,5.128,5.128v283.147
					C170.618,336.901,168.317,339.202,165.49,339.202z M41.511,47.798c-1.725,0-3.128,1.403-3.128,3.128v283.147
					c0,1.725,1.403,3.128,3.128,3.128H165.49c1.725,0,3.128-1.403,3.128-3.128V50.926c0-1.725-1.403-3.128-3.128-3.128H41.511z"/>
			</g>
			
				<linearGradient id="SVGID_00000137125410762471508090000014254747439195773850_" gradientUnits="userSpaceOnUse" x1="155.4162" y1="60.4515" x2="161.8192" y2="54.0485">
				<stop  offset="0.002" style="stop-color:#6B6A6F"/>
				<stop  offset="0.162" style="stop-color:#E4E4E4"/>
				<stop  offset="0.3416" style="stop-color:#B3B4B8"/>
				<stop  offset="0.4778" style="stop-color:#B7B8BB"/>
				<stop  offset="0.6052" style="stop-color:#C2C3C5"/>
				<stop  offset="0.7287" style="stop-color:#D5D5D6"/>
				<stop  offset="0.8026" style="stop-color:#E4E4E4"/>
				<stop  offset="1" style="stop-color:#B3B4B8"/>
			</linearGradient>
			<path style="fill-rule:evenodd;clip-rule:evenodd;fill:url(#SVGID_00000137125410762471508090000014254747439195773850_);" d="
				M163.118,57.317c0,2.448-1.985,4.433-4.433,4.433h-0.134c-2.448,0-4.433-1.985-4.433-4.433v-0.134
				c0-2.448,1.985-4.433,4.433-4.433h0.134c2.448,0,4.433,1.985,4.433,4.433V57.317z"/>
			
				<linearGradient id="SVGID_00000004538138063452796950000013275388405546320799_" gradientUnits="userSpaceOnUse" x1="103.5" y1="206.75" x2="103.5" y2="189.75">
				<stop  offset="0" style="stop-color:#007DAC"/>
				<stop  offset="0.145" style="stop-color:#003B52"/>
				<stop  offset="0.3069" style="stop-color:#00364B"/>
				<stop  offset="0.5385" style="stop-color:#002938"/>
				<stop  offset="0.8108" style="stop-color:#00121A"/>
				<stop  offset="1" style="stop-color:#000000"/>
			</linearGradient>
			<path style="fill-rule:evenodd;clip-rule:evenodd;fill:url(#SVGID_00000004538138063452796950000013275388405546320799_);" d="
				M152,202.317c0,2.448-1.985,4.433-4.433,4.433H59.433c-2.448,0-4.433-1.985-4.433-4.433v-8.134c0-2.448,1.985-4.433,4.433-4.433
				h88.134c2.448,0,4.433,1.985,4.433,4.433V202.317z"/>
			
				<linearGradient id="SVGID_00000077290760470401424230000007410963810897024919_" gradientUnits="userSpaceOnUse" x1="103.5" y1="234.75" x2="103.5" y2="217.75">
				<stop  offset="0" style="stop-color:#E4E4E4"/>
				<stop  offset="0.0164" style="stop-color:#D5D5D6"/>
				<stop  offset="0.0437" style="stop-color:#C2C3C5"/>
				<stop  offset="0.0719" style="stop-color:#B7B8BB"/>
				<stop  offset="0.1021" style="stop-color:#B3B4B8"/>
				<stop  offset="0.6444" style="stop-color:#B3B4B8"/>
				<stop  offset="0.7377" style="stop-color:#B3B4B8"/>
				<stop  offset="0.7945" style="stop-color:#9FA0A3"/>
				<stop  offset="0.911" style="stop-color:#6B6B6E"/>
				<stop  offset="0.998" style="stop-color:#414042"/>
			</linearGradient>
			<path style="fill-rule:evenodd;clip-rule:evenodd;fill:url(#SVGID_00000077290760470401424230000007410963810897024919_);" d="
				M152,230.317c0,2.448-1.985,4.433-4.433,4.433H59.433c-2.448,0-4.433-1.985-4.433-4.433v-8.134c0-2.448,1.985-4.433,4.433-4.433
				h88.134c2.448,0,4.433,1.985,4.433,4.433V230.317z"/>
			
				<linearGradient id="SVGID_00000043445923048378586560000010569970679689790140_" gradientUnits="userSpaceOnUse" x1="103.5" y1="262.75" x2="103.5" y2="245.75">
				<stop  offset="0" style="stop-color:#E4E4E4"/>
				<stop  offset="0.0164" style="stop-color:#D5D5D6"/>
				<stop  offset="0.0437" style="stop-color:#C2C3C5"/>
				<stop  offset="0.0719" style="stop-color:#B7B8BB"/>
				<stop  offset="0.1021" style="stop-color:#B3B4B8"/>
				<stop  offset="0.6444" style="stop-color:#B3B4B8"/>
				<stop  offset="0.7377" style="stop-color:#B3B4B8"/>
				<stop  offset="0.7945" style="stop-color:#9FA0A3"/>
				<stop  offset="0.911" style="stop-color:#6B6B6E"/>
				<stop  offset="0.998" style="stop-color:#414042"/>
			</linearGradient>
			<path style="fill-rule:evenodd;clip-rule:evenodd;fill:url(#SVGID_00000043445923048378586560000010569970679689790140_);" d="
				M152,258.317c0,2.448-1.985,4.433-4.433,4.433H59.433c-2.448,0-4.433-1.985-4.433-4.433v-8.134c0-2.448,1.985-4.433,4.433-4.433
				h88.134c2.448,0,4.433,1.985,4.433,4.433V258.317z"/>
			
				<linearGradient id="SVGID_00000088113681348131530850000003922931092751412645_" gradientUnits="userSpaceOnUse" x1="103.5" y1="293.75" x2="103.5" y2="276.75">
				<stop  offset="0" style="stop-color:#007DAC"/>
				<stop  offset="0.145" style="stop-color:#003B52"/>
				<stop  offset="1" style="stop-color:#000000"/>
			</linearGradient>
			<path style="fill-rule:evenodd;clip-rule:evenodd;fill:url(#SVGID_00000088113681348131530850000003922931092751412645_);" d="
				M152,289.317c0,2.448-1.985,4.433-4.433,4.433H59.433c-2.448,0-4.433-1.985-4.433-4.433v-8.134c0-2.448,1.985-4.433,4.433-4.433
				h88.134c2.448,0,4.433,1.985,4.433,4.433V289.317z"/>
			<g>
				
					<linearGradient id="SVGID_00000020384934761017050060000009153990253328917389_" gradientUnits="userSpaceOnUse" x1="63.1274" y1="102.9353" x2="143.9726" y2="102.9353">
					<stop  offset="0" style="stop-color:#E4E4E4"/>
					<stop  offset="0.5475" style="stop-color:#B3B4B8"/>
					<stop  offset="0.8083" style="stop-color:#CECED0"/>
					<stop  offset="1" style="stop-color:#E4E4E4"/>
				</linearGradient>
				<path style="fill-rule:evenodd;clip-rule:evenodd;fill:url(#SVGID_00000020384934761017050060000009153990253328917389_);" d="
					M64.835,93.969v16.476h10.046v1.457H63.127V93.969H64.835z"/>
				
					<linearGradient id="SVGID_00000117659504362468939680000014303940771455068594_" gradientUnits="userSpaceOnUse" x1="63.1275" y1="102.9226" x2="143.9726" y2="102.9226">
					<stop  offset="0" style="stop-color:#E4E4E4"/>
					<stop  offset="0.5475" style="stop-color:#B3B4B8"/>
					<stop  offset="0.8083" style="stop-color:#CECED0"/>
					<stop  offset="1" style="stop-color:#E4E4E4"/>
				</linearGradient>
				<path style="fill-rule:evenodd;clip-rule:evenodd;fill:url(#SVGID_00000117659504362468939680000014303940771455068594_);" d="
					M76.188,99.394c0.352-1.121,0.879-2.114,1.582-2.976c0.704-0.862,1.587-1.549,2.65-2.06c1.063-0.511,2.298-0.766,3.705-0.766
					c1.406,0,2.637,0.255,3.692,0.766c1.055,0.511,1.934,1.197,2.637,2.06c0.703,0.862,1.23,1.854,1.582,2.976
					c0.352,1.122,0.527,2.302,0.527,3.541c0,1.239-0.176,2.42-0.527,3.542c-0.352,1.122-0.879,2.109-1.582,2.963
					c-0.704,0.854-1.583,1.537-2.637,2.047c-1.055,0.511-2.286,0.766-3.692,0.766c-1.407,0-2.642-0.255-3.705-0.766
					c-1.063-0.51-1.946-1.193-2.65-2.047c-0.703-0.854-1.23-1.841-1.582-2.963c-0.352-1.122-0.527-2.302-0.527-3.542
					C75.66,101.696,75.836,100.516,76.188,99.394z M77.757,105.811c0.259,0.946,0.661,1.792,1.206,2.537
					c0.544,0.745,1.243,1.344,2.097,1.795c0.854,0.452,1.875,0.678,3.064,0.678c1.188,0,2.206-0.226,3.051-0.678
					c0.845-0.452,1.54-1.05,2.085-1.795c0.544-0.745,0.946-1.591,1.205-2.537c0.26-0.946,0.39-1.905,0.39-2.876
					c0-0.988-0.13-1.95-0.39-2.888c-0.26-0.938-0.662-1.779-1.205-2.524c-0.544-0.745-1.239-1.344-2.085-1.796
					c-0.846-0.452-1.863-0.678-3.051-0.678c-1.189,0-2.21,0.226-3.064,0.678c-0.854,0.452-1.553,1.051-2.097,1.796
					c-0.544,0.745-0.946,1.586-1.206,2.524c-0.26,0.938-0.39,1.9-0.39,2.888C77.368,103.906,77.498,104.865,77.757,105.811z"/>
				
					<linearGradient id="SVGID_00000013166524751059824850000014361945162520997523_" gradientUnits="userSpaceOnUse" x1="63.1276" y1="102.9353" x2="143.9726" y2="102.9353">
					<stop  offset="0" style="stop-color:#E4E4E4"/>
					<stop  offset="0.5475" style="stop-color:#B3B4B8"/>
					<stop  offset="0.8083" style="stop-color:#CECED0"/>
					<stop  offset="1" style="stop-color:#E4E4E4"/>
				</linearGradient>
				<path style="fill-rule:evenodd;clip-rule:evenodd;fill:url(#SVGID_00000013166524751059824850000014361945162520997523_);" d="
					M103.438,93.969c0.737,0,1.436,0.092,2.097,0.276c0.661,0.185,1.239,0.465,1.733,0.842c0.494,0.377,0.887,0.862,1.181,1.457
					c0.293,0.594,0.44,1.293,0.44,2.097c0,1.139-0.294,2.126-0.879,2.963c-0.586,0.837-1.456,1.373-2.612,1.607v0.05
					c0.586,0.084,1.071,0.239,1.456,0.465c0.385,0.226,0.699,0.515,0.942,0.866c0.243,0.352,0.419,0.758,0.527,1.218
					c0.109,0.461,0.18,0.959,0.214,1.494c0.016,0.301,0.033,0.67,0.05,1.105c0.017,0.436,0.05,0.875,0.101,1.319
					c0.05,0.444,0.129,0.862,0.239,1.256c0.108,0.394,0.255,0.699,0.439,0.916h-1.884c-0.101-0.167-0.18-0.373-0.238-0.615
					c-0.059-0.243-0.101-0.494-0.126-0.753c-0.025-0.26-0.046-0.515-0.063-0.766c-0.017-0.251-0.034-0.469-0.05-0.653
					c-0.034-0.636-0.088-1.269-0.163-1.896c-0.076-0.628-0.235-1.188-0.478-1.683c-0.243-0.494-0.594-0.892-1.055-1.193
					c-0.461-0.302-1.092-0.435-1.896-0.402h-6.48v7.961h-1.708V93.969H103.438z M103.312,102.483c0.519,0,1.013-0.079,1.482-0.238
					c0.468-0.159,0.879-0.389,1.23-0.691c0.352-0.301,0.632-0.666,0.841-1.092c0.209-0.427,0.314-0.917,0.314-1.469
					c0-1.105-0.318-1.976-0.955-2.612c-0.636-0.636-1.607-0.954-2.913-0.954h-6.379v7.057H103.312z"/>
				
					<linearGradient id="SVGID_00000028290743834926209410000001274609295438303627_" gradientUnits="userSpaceOnUse" x1="63.1275" y1="102.9353" x2="143.9727" y2="102.9353">
					<stop  offset="0" style="stop-color:#E4E4E4"/>
					<stop  offset="0.5475" style="stop-color:#B3B4B8"/>
					<stop  offset="0.8083" style="stop-color:#CECED0"/>
					<stop  offset="1" style="stop-color:#E4E4E4"/>
				</linearGradient>
				<path style="fill-rule:evenodd;clip-rule:evenodd;fill:url(#SVGID_00000028290743834926209410000001274609295438303627_);" d="
					M124.358,93.969v1.457h-10.674v6.479h9.996v1.457h-9.996v7.083h10.8v1.457h-12.508V93.969H124.358z"/>
				
					<linearGradient id="SVGID_00000147200008514024975590000005747882987148542091_" gradientUnits="userSpaceOnUse" x1="63.1272" y1="102.9353" x2="143.9727" y2="102.9353">
					<stop  offset="0" style="stop-color:#E4E4E4"/>
					<stop  offset="0.5475" style="stop-color:#B3B4B8"/>
					<stop  offset="0.8083" style="stop-color:#CECED0"/>
					<stop  offset="1" style="stop-color:#E4E4E4"/>
				</linearGradient>
				<path style="fill-rule:evenodd;clip-rule:evenodd;fill:url(#SVGID_00000147200008514024975590000005747882987148542091_);" d="
					M129.331,93.969l5.953,15.722l6.178-15.722h2.511v17.932h-1.708V96.405h-0.05l-6.128,15.496h-1.607l-5.902-15.496h-0.05v15.496
					h-1.708V93.969H129.331z"/>
				
					<linearGradient id="SVGID_00000165201805519616918940000003012931699700481678_" gradientUnits="userSpaceOnUse" x1="63.1274" y1="130.8345" x2="143.9731" y2="130.8345">
					<stop  offset="0" style="stop-color:#E4E4E4"/>
					<stop  offset="0.5475" style="stop-color:#B3B4B8"/>
					<stop  offset="0.8083" style="stop-color:#CECED0"/>
					<stop  offset="1" style="stop-color:#E4E4E4"/>
				</linearGradient>
				<path style="fill-rule:evenodd;clip-rule:evenodd;fill:url(#SVGID_00000165201805519616918940000003012931699700481678_);" d="
					M65.371,119.768h4.464v22.134h-4.464V119.768z"/>
				
					<linearGradient id="SVGID_00000124865004427495202840000017783384738625760932_" gradientUnits="userSpaceOnUse" x1="63.1275" y1="130.8345" x2="143.9728" y2="130.8345">
					<stop  offset="0" style="stop-color:#E4E4E4"/>
					<stop  offset="0.5475" style="stop-color:#B3B4B8"/>
					<stop  offset="0.8083" style="stop-color:#CECED0"/>
					<stop  offset="1" style="stop-color:#E4E4E4"/>
				</linearGradient>
				<path style="fill-rule:evenodd;clip-rule:evenodd;fill:url(#SVGID_00000124865004427495202840000017783384738625760932_);" d="
					M80.963,119.768c1.137,0,2.093,0.191,2.868,0.573c0.775,0.383,1.4,0.884,1.875,1.503c0.475,0.62,0.816,1.328,1.023,2.124
					c0.206,0.796,0.31,1.607,0.31,2.434c0,1.137-0.17,2.129-0.512,2.976c-0.341,0.848-0.816,1.54-1.426,2.077
					c-0.61,0.538-1.349,0.94-2.216,1.209c-0.868,0.268-1.829,0.403-2.883,0.403h-2.387v8.835h-4.464v-22.134H80.963z M79.6,129.78
					c0.888,0,1.606-0.268,2.154-0.806c0.547-0.538,0.822-1.374,0.822-2.511c0-1.116-0.238-1.963-0.713-2.542
					c-0.476-0.578-1.271-0.868-2.387-0.868h-1.86v6.727H79.6z"/>
				
					<linearGradient id="SVGID_00000002351065307845567960000004246844359439865009_" gradientUnits="userSpaceOnUse" x1="63.1274" y1="130.7879" x2="143.9727" y2="130.7879">
					<stop  offset="0" style="stop-color:#E4E4E4"/>
					<stop  offset="0.5475" style="stop-color:#B3B4B8"/>
					<stop  offset="0.8083" style="stop-color:#CECED0"/>
					<stop  offset="1" style="stop-color:#E4E4E4"/>
				</linearGradient>
				<path style="fill-rule:evenodd;clip-rule:evenodd;fill:url(#SVGID_00000002351065307845567960000004246844359439865009_);" d="
					M92.836,135.639c0,0.517,0.041,0.987,0.124,1.411c0.083,0.424,0.237,0.78,0.465,1.069c0.228,0.29,0.532,0.517,0.914,0.682
					c0.382,0.165,0.863,0.248,1.441,0.248c0.682,0,1.297-0.222,1.845-0.667c0.547-0.444,0.821-1.131,0.821-2.061
					c0-0.496-0.067-0.925-0.201-1.287c-0.135-0.361-0.356-0.687-0.667-0.976c-0.31-0.29-0.718-0.553-1.225-0.79
					c-0.507-0.237-1.131-0.48-1.876-0.729c-0.992-0.331-1.85-0.692-2.573-1.085c-0.724-0.393-1.328-0.853-1.813-1.38
					c-0.486-0.527-0.842-1.136-1.069-1.829c-0.228-0.692-0.341-1.493-0.341-2.403c0-2.19,0.609-3.823,1.829-4.898
					c1.219-1.074,2.894-1.612,5.022-1.612c0.992,0,1.907,0.108,2.744,0.325c0.837,0.217,1.56,0.569,2.17,1.054
					c0.609,0.486,1.085,1.106,1.426,1.86c0.341,0.755,0.511,1.659,0.511,2.712v0.62h-4.278c0-1.054-0.186-1.865-0.558-2.434
					c-0.372-0.568-0.992-0.853-1.86-0.853c-0.496,0-0.91,0.073-1.24,0.217c-0.33,0.145-0.594,0.336-0.79,0.573
					c-0.196,0.238-0.331,0.512-0.403,0.822c-0.073,0.31-0.108,0.63-0.108,0.961c0,0.682,0.145,1.255,0.434,1.721
					c0.289,0.465,0.909,0.894,1.86,1.286l3.441,1.488c0.847,0.372,1.54,0.759,2.077,1.163c0.537,0.403,0.966,0.837,1.287,1.302
					c0.32,0.465,0.542,0.977,0.666,1.535c0.124,0.558,0.186,1.178,0.186,1.86c0,2.335-0.677,4.035-2.031,5.1
					c-1.354,1.064-3.239,1.596-5.657,1.596c-2.522,0-4.325-0.547-5.41-1.643s-1.627-2.666-1.627-4.712v-0.899h4.464V135.639z"/>
				
					<linearGradient id="SVGID_00000072254086610535147500000015523174647977158786_" gradientUnits="userSpaceOnUse" x1="63.1276" y1="131.0049" x2="143.9726" y2="131.0049">
					<stop  offset="0" style="stop-color:#E4E4E4"/>
					<stop  offset="0.5475" style="stop-color:#B3B4B8"/>
					<stop  offset="0.8083" style="stop-color:#CECED0"/>
					<stop  offset="1" style="stop-color:#E4E4E4"/>
				</linearGradient>
				<path style="fill-rule:evenodd;clip-rule:evenodd;fill:url(#SVGID_00000072254086610535147500000015523174647977158786_);" d="
					M109.514,135.206c0,0.558,0.036,1.069,0.108,1.534c0.072,0.465,0.207,0.868,0.403,1.209c0.196,0.341,0.465,0.61,0.806,0.806
					c0.341,0.197,0.77,0.294,1.286,0.294c0.537,0,0.971-0.098,1.302-0.294c0.33-0.196,0.594-0.465,0.79-0.806
					c0.196-0.341,0.33-0.744,0.403-1.209c0.072-0.465,0.108-0.977,0.108-1.534v-15.438h4.464v15.438
					c0,1.405-0.197,2.568-0.589,3.487c-0.393,0.92-0.92,1.648-1.581,2.186c-0.662,0.538-1.415,0.899-2.263,1.085
					c-0.848,0.186-1.726,0.279-2.635,0.279c-0.91,0-1.788-0.083-2.635-0.248c-0.848-0.165-1.602-0.5-2.263-1.007
					c-0.662-0.506-1.188-1.225-1.581-2.154c-0.393-0.93-0.589-2.139-0.589-3.627v-15.438h4.464V135.206z"/>
				
					<linearGradient id="SVGID_00000039832072644083686630000009413240955059586215_" gradientUnits="userSpaceOnUse" x1="63.1387" y1="130.8345" x2="143.9838" y2="130.8345">
					<stop  offset="0" style="stop-color:#E4E4E4"/>
					<stop  offset="0.5475" style="stop-color:#B3B4B8"/>
					<stop  offset="0.8083" style="stop-color:#CECED0"/>
					<stop  offset="1" style="stop-color:#E4E4E4"/>
				</linearGradient>
				<path style="fill-rule:evenodd;clip-rule:evenodd;fill:url(#SVGID_00000039832072644083686630000009413240955059586215_);" d="
					M128.734,119.768l3.162,15.624h0.062l3.193-15.624h6.603v22.134h-4.092v-17.67H137.6l-3.937,17.67h-3.472l-3.937-17.67h-0.062
					v17.67H122.1v-22.134H128.734z"/>
			</g>
			<path style="fill-rule:evenodd;clip-rule:evenodd;fill:#F7B000;" d="M129.625,318.262c0,3.367-2.729,6.096-6.096,6.096H83.471
				c-3.366,0-6.096-2.729-6.096-6.096v-2.934c0-3.367,2.729-6.096,6.096-6.096h40.059c3.366,0,6.096,2.729,6.096,6.096V318.262z"/>
			<g>
				<path style="fill:#003347;" d="M89.504,312.399l3.67,5.899h0.024v-5.899h1.811v8.793h-1.934l-3.658-5.887h-0.024v5.887h-1.811
					v-8.793H89.504z"/>
				<path style="fill:#003347;" d="M103.284,312.399v1.626h-4.643v1.884h4.261v1.502h-4.261v2.155h4.741v1.625h-6.675v-8.793
					H103.284z"/>
				<path style="fill:#003347;" d="M104.011,312.399h2.242l1.724,2.808l1.786-2.808h2.118l-2.82,4.199l3.066,4.594h-2.303
					l-1.922-3.042l-1.958,3.042h-2.167l3.066-4.606L104.011,312.399z"/>
				<path style="fill:#003347;" d="M112.213,314.024v-1.626h7.205v1.626h-2.636v7.167h-1.934v-7.167H112.213z"/>
			</g>
		</g>
	</g>
</g>
</svg>
